<svg width="69" height="69" viewBox="0 0 69 69" fill="none" xmlns="http://www.w3.org/2000/svg">
<g id="ic:baseline-share">
<path id="Vector" d="M51.75 46.23C49.565 46.23 47.61 47.0925 46.115 48.4438L25.6162 36.5125C25.76 35.8512 25.875 35.19 25.875 34.5C25.875 33.81 25.76 33.1488 25.6162 32.4875L45.885 20.6713C47.4375 22.1087 49.4787 23 51.75 23C56.5225 23 60.375 19.1475 60.375 14.375C60.375 9.6025 56.5225 5.75 51.75 5.75C46.9775 5.75 43.125 9.6025 43.125 14.375C43.125 15.065 43.24 15.7262 43.3838 16.3875L23.115 28.2038C21.5625 26.7663 19.5212 25.875 17.25 25.875C12.4775 25.875 8.625 29.7275 8.625 34.5C8.625 39.2725 12.4775 43.125 17.25 43.125C19.5212 43.125 21.5625 42.2337 23.115 40.7962L43.585 52.7563C43.4412 53.36 43.355 53.9925 43.355 54.625C43.355 59.2537 47.1213 63.02 51.75 63.02C56.3787 63.02 60.145 59.2537 60.145 54.625C60.145 49.9963 56.3787 46.23 51.75 46.23Z" fill="black"/>
</g>
</svg>
