<svg width="60" height="67" viewBox="0 0 60 67" fill="none" xmlns="http://www.w3.org/2000/svg">
<g id="material-symbols:arrow-back-ios-new-rounded">
<path id="Vector" d="M35.2585 58.3441L56.1605 35.2926C56.4086 35.0182 56.5847 34.7209 56.6889 34.4007C56.7931 34.0806 56.8444 33.7376 56.8427 33.3717C56.8427 33.0058 56.7915 32.6627 56.6889 32.3426C56.5864 32.0224 56.4102 31.7251 56.1605 31.4507L35.2585 8.3306C34.6796 7.69028 33.956 7.37012 33.0877 7.37012C32.2194 7.37012 31.4751 7.71315 30.8548 8.3992C30.2346 9.08526 29.9245 9.88566 29.9245 10.8004C29.9245 11.7151 30.2346 12.5155 30.8548 13.2016L49.0898 33.3717L30.8548 53.5417C30.2759 54.182 29.9865 54.9715 29.9865 55.91C29.9865 56.8485 30.2966 57.6599 30.9169 58.3441C31.5371 59.0302 32.2607 59.3732 33.0877 59.3732C33.9147 59.3732 34.6383 59.0302 35.2585 58.3441Z" fill="#454545"/>
</g>
</svg>
