<svg width="86" height="86" viewBox="0 0 86 86" fill="none" xmlns="http://www.w3.org/2000/svg">
<g id="ph:camera-fill">
<path id="Vector" d="M69.875 18.8125H60.5628L55.984 11.9459C55.7387 11.5783 55.4065 11.2768 55.0168 11.0682C54.6271 10.8595 54.192 10.7503 53.75 10.75H32.25C31.808 10.7503 31.3729 10.8595 30.9832 11.0682C30.5935 11.2768 30.2613 11.5783 30.016 11.9459L25.4338 18.8125H16.125C13.9867 18.8125 11.936 19.6619 10.424 21.174C8.91194 22.686 8.0625 24.7367 8.0625 26.875V64.5C8.0625 66.6383 8.91194 68.689 10.424 70.201C11.936 71.7131 13.9867 72.5625 16.125 72.5625H69.875C72.0133 72.5625 74.064 71.7131 75.576 70.201C77.0881 68.689 77.9375 66.6383 77.9375 64.5V26.875C77.9375 24.7367 77.0881 22.686 75.576 21.174C74.064 19.6619 72.0133 18.8125 69.875 18.8125ZM55.0938 44.3438C55.0938 46.7357 54.3845 49.0739 53.0556 51.0627C51.7267 53.0515 49.8379 54.6016 47.6281 55.5169C45.4182 56.4323 42.9866 56.6718 40.6406 56.2051C38.2947 55.7385 36.1398 54.5867 34.4484 52.8953C32.7571 51.204 31.6053 49.0491 31.1386 46.7031C30.672 44.3572 30.9115 41.9255 31.8268 39.7157C32.7422 37.5058 34.2923 35.617 36.2811 34.2882C38.2699 32.9593 40.6081 32.25 43 32.25C46.2075 32.25 49.2836 33.5242 51.5516 35.7922C53.8196 38.0602 55.0938 41.1363 55.0938 44.3438Z" fill="#181818"/>
</g>
</svg>
