<svg width="188" height="188" viewBox="0 0 188 188" fill="none" xmlns="http://www.w3.org/2000/svg">
<path d="M94 17.625C78.8945 17.625 64.1282 22.1043 51.5684 30.4965C39.0086 38.8887 29.2194 50.8168 23.4387 64.7726C17.6581 78.7283 16.1456 94.0847 19.0926 108.9C22.0395 123.715 29.3135 137.324 39.9948 148.005C50.676 158.687 64.2847 165.961 79.1 168.907C93.9153 171.854 109.272 170.342 123.227 164.561C137.183 158.781 149.111 148.991 157.504 136.432C165.896 123.872 170.375 109.106 170.375 94C170.354 73.7507 162.3 54.3368 147.982 40.0183C133.663 25.6999 114.249 17.6464 94 17.625ZM94 158.625C81.2184 158.625 68.7238 154.835 58.0963 147.734C47.4688 140.633 39.1856 130.54 34.2943 118.731C29.403 106.922 28.1232 93.9283 30.6168 81.3923C33.1104 68.8563 39.2653 57.3412 48.3033 48.3032C57.3412 39.2653 68.8563 33.1103 81.3923 30.6168C93.9284 28.1232 106.922 29.403 118.731 34.2943C130.54 39.1856 140.633 47.4687 147.734 58.0963C154.835 68.7238 158.625 81.2184 158.625 94C158.606 111.134 151.791 127.56 139.675 139.675C127.56 151.791 111.134 158.606 94 158.625ZM146.875 94C146.875 104.458 143.774 114.681 137.964 123.376C132.154 132.071 123.896 138.848 114.234 142.85C104.573 146.852 93.9414 147.899 83.6846 145.859C73.4279 143.819 64.0065 138.783 56.6118 131.388C49.2171 123.994 44.1812 114.572 42.141 104.315C40.1008 94.0587 41.1479 83.4273 45.1499 73.7656C49.1519 64.104 55.929 55.846 64.6243 50.036C73.3195 44.2261 83.5424 41.125 94 41.125C108.019 41.1406 121.459 46.7163 131.371 56.6289C141.284 66.5415 146.859 79.9815 146.875 94Z" fill="black"/>
</svg>
