<svg width="67" height="67" viewBox="0 0 67 67" fill="none" xmlns="http://www.w3.org/2000/svg">
<path d="M50.9702 9.79336C51.3529 9.95184 51.6799 10.2202 51.91 10.5646C52.14 10.909 52.2628 11.3138 52.2628 11.728V23.573C52.2628 24.1283 52.0422 24.6609 51.6495 25.0535C51.2569 25.4462 50.7243 25.6668 50.169 25.6668H38.324C37.9102 25.6664 37.5057 25.5434 37.1617 25.3133C36.8177 25.0832 36.5497 24.7564 36.3914 24.374C36.233 23.9917 36.1916 23.571 36.2722 23.1651C36.3528 22.7592 36.552 22.3863 36.8444 22.0934L41.3167 17.6156C37.2086 15.8953 32.6478 15.5781 28.3411 16.7131C24.0344 17.848 20.2224 20.3719 17.4957 23.8934C14.7691 27.4149 13.2801 31.7374 13.2596 36.1911C13.239 40.6448 14.6881 44.9809 17.3822 48.5274C20.0762 52.0739 23.8648 54.6327 28.1609 55.8074C32.4569 56.982 37.0204 56.7068 41.1442 55.0245C45.2679 53.3422 48.7216 50.3466 50.97 46.5021C53.2184 42.6576 54.136 38.1788 53.5804 33.7598C53.5229 33.2147 53.6814 32.6688 54.0219 32.2393C54.3624 31.8098 54.8577 31.531 55.4016 31.4626C55.9454 31.3943 56.4943 31.5419 56.9305 31.8738C57.3667 32.2057 57.6553 32.6954 57.7344 33.2378C58.414 38.6429 57.2672 44.1201 54.4763 48.7986C51.6855 53.4771 47.4109 57.0885 42.3319 59.0586C37.2529 61.0286 31.6611 61.2444 26.4454 59.6715C21.2298 58.0986 16.6895 54.8274 13.5465 50.3778C10.4035 45.9282 8.83809 40.5557 9.09912 35.1143C9.36014 29.6729 11.4326 24.4748 14.9871 20.3466C18.5416 16.2183 23.3741 13.3966 28.7164 12.3302C34.0587 11.2638 39.6042 12.0138 44.4712 14.461L48.6867 10.2456C48.9796 9.95326 49.3526 9.75427 49.7585 9.67378C50.1644 9.59328 50.5879 9.6349 50.9702 9.79336Z" fill="#454545"/>
</svg>
