<svg width="60" height="67" viewBox="0 0 60 67" fill="none" xmlns="http://www.w3.org/2000/svg">
<g id="material-symbols:arrow-back-ios-new-rounded">
<path id="Vector" d="M35.2585 58.3451L56.1605 35.2936C56.4086 35.0192 56.5847 34.7219 56.6889 34.4017C56.7931 34.0816 56.8444 33.7385 56.8427 33.3726C56.8427 33.0067 56.7915 32.6637 56.6889 32.3436C56.5864 32.0234 56.4102 31.7261 56.1605 31.4517L35.2585 8.33157C34.6796 7.69125 33.956 7.37109 33.0877 7.37109C32.2194 7.37109 31.4751 7.71412 30.8548 8.40018C30.2346 9.08624 29.9245 9.88663 29.9245 10.8014C29.9245 11.7161 30.2346 12.5165 30.8548 13.2026L49.0898 33.3726L30.8548 53.5427C30.2759 54.183 29.9865 54.9724 29.9865 55.911C29.9865 56.8495 30.2966 57.6609 30.9169 58.3451C31.5371 59.0312 32.2607 59.3742 33.0877 59.3742C33.9147 59.3742 34.6383 59.0312 35.2585 58.3451Z" fill="white"/>
</g>
</svg>
