<svg width="700" height="859" viewBox="0 0 700 859" fill="none" xmlns="http://www.w3.org/2000/svg">
<path d="M699.714 535.15C699.714 773.896 543.078 858.301 349.857 858.301C156.636 858.301 0 747.368 0 535.15C0 356.679 156.636 212 349.857 212C543.078 212 699.714 356.438 699.714 535.15Z" fill="url(#paint0_linear_108_300)"/>
<rect x="292" y="493.072" width="48.0725" height="16.0242" rx="8.01209" transform="rotate(-90 292 493.072)" fill="black"/>
<rect x="397.381" y="493.072" width="48.0725" height="16.0242" rx="8.01209" transform="rotate(-90 397.381 493.072)" fill="black"/>
<path d="M391.307 262.966C376.363 231.9 354.108 157.341 384.639 107.638" stroke="black" stroke-width="2" stroke-linecap="round"/>
<path d="M384.056 100.577L310.77 7.56101C310.77 7.56101 301.385 14.114 298.378 26.6702C292.785 50.0653 305.138 68.1821 316.348 78.4825C335.733 96.2523 371.834 101.789 384.033 100.546L384.056 100.577Z" fill="url(#paint1_linear_108_300)"/>
<path d="M384.056 100.577L310.77 7.56101C310.77 7.56101 319.337 -0.0279844 332.268 7.76328e-05C356.33 0.0353313 371.06 16.2861 378.455 29.6251C391.196 52.6213 388.132 89.0084 384.056 100.577Z" fill="url(#paint2_linear_108_300)"/>
<path d="M381.017 98.93L454.304 191.946C454.304 191.946 463.688 185.393 466.695 172.837C472.289 149.442 459.935 131.325 448.725 121.024C429.34 103.255 393.239 97.7184 381.041 98.9604L381.017 98.93Z" fill="url(#paint3_linear_108_300)"/>
<path d="M381.017 98.93L454.304 191.946C454.304 191.946 445.736 199.535 432.806 199.507C408.743 199.472 394.013 183.221 386.619 169.882C373.877 146.886 376.942 110.498 381.017 98.93Z" fill="url(#paint4_linear_108_300)"/>
<path d="M380.882 100.155L475.9 29.5159C475.9 29.5159 483.246 38.2934 482.867 51.1989C482.154 75.2428 465.495 89.5024 451.984 96.516C428.629 108.603 392.336 104.514 380.885 100.128L380.882 100.155Z" fill="url(#paint5_linear_108_300)"/>
<path d="M380.882 100.155L475.9 29.5159C475.9 29.5159 469.612 19.9519 457.151 16.604C433.915 10.3507 415.451 22.1881 404.827 33.1315C386.52 51.9995 379.97 87.9233 380.882 100.155Z" fill="url(#paint6_linear_108_300)"/>
<path d="M384.192 99.3521L289.174 169.991C289.174 169.991 281.827 161.213 282.206 148.308C282.92 124.264 299.578 110.004 313.09 102.991C336.444 90.9036 372.738 94.9926 384.188 99.3789L384.192 99.3521Z" fill="url(#paint7_linear_108_300)"/>
<path d="M384.192 99.3521L289.174 169.991C289.174 169.991 295.461 179.555 307.922 182.903C331.158 189.156 349.622 177.319 360.246 166.375C378.553 147.507 385.103 111.584 384.192 99.3521Z" fill="url(#paint8_linear_108_300)"/>
<path d="M300 483.7C300 485.112 301.206 485.865 302.089 486.538C302.4 486.776 302.7 487 303 487C303.3 487 303.6 486.776 303.911 486.538C304.794 485.865 306 485.112 306 483.7C306 482.288 304.35 481.286 303 482.644C301.65 481.286 300 482.287 300 483.7Z" fill="#F8F8F8"/>
<defs>
<linearGradient id="paint0_linear_108_300" x1="349.857" y1="212" x2="349.857" y2="858.301" gradientUnits="userSpaceOnUse">
<stop stop-color="#D9FFF5"/>
<stop offset="1" stop-color="#6EF5E5"/>
</linearGradient>
<linearGradient id="paint1_linear_108_300" x1="382.537" y1="0" x2="382.537" y2="199.507" gradientUnits="userSpaceOnUse">
<stop stop-color="#7FFF6A"/>
<stop offset="1" stop-color="#36F9D6"/>
</linearGradient>
<linearGradient id="paint2_linear_108_300" x1="382.537" y1="0" x2="382.537" y2="199.507" gradientUnits="userSpaceOnUse">
<stop stop-color="#7FFF6A"/>
<stop offset="1" stop-color="#36F9D6"/>
</linearGradient>
<linearGradient id="paint3_linear_108_300" x1="382.537" y1="0" x2="382.537" y2="199.507" gradientUnits="userSpaceOnUse">
<stop stop-color="#7FFF6A"/>
<stop offset="1" stop-color="#36F9D6"/>
</linearGradient>
<linearGradient id="paint4_linear_108_300" x1="382.537" y1="0" x2="382.537" y2="199.507" gradientUnits="userSpaceOnUse">
<stop stop-color="#7FFF6A"/>
<stop offset="1" stop-color="#36F9D6"/>
</linearGradient>
<linearGradient id="paint5_linear_108_300" x1="382.537" y1="0" x2="382.537" y2="199.507" gradientUnits="userSpaceOnUse">
<stop stop-color="#7FFF6A"/>
<stop offset="1" stop-color="#36F9D6"/>
</linearGradient>
<linearGradient id="paint6_linear_108_300" x1="382.537" y1="0" x2="382.537" y2="199.507" gradientUnits="userSpaceOnUse">
<stop stop-color="#7FFF6A"/>
<stop offset="1" stop-color="#36F9D6"/>
</linearGradient>
<linearGradient id="paint7_linear_108_300" x1="382.537" y1="0" x2="382.537" y2="199.507" gradientUnits="userSpaceOnUse">
<stop stop-color="#7FFF6A"/>
<stop offset="1" stop-color="#36F9D6"/>
</linearGradient>
<linearGradient id="paint8_linear_108_300" x1="382.537" y1="0" x2="382.537" y2="199.507" gradientUnits="userSpaceOnUse">
<stop stop-color="#7FFF6A"/>
<stop offset="1" stop-color="#36F9D6"/>
</linearGradient>
</defs>
</svg>
